<mxfile host="app.diagrams.net" modified="2021-01-06T01:14:15.968Z" agent="5.0 (Windows NT 10.0; WOW64) AppleWebKit/537.36 (KHTML, like Gecko) Chrome/87.0.4280.88 Safari/537.36" etag="33uBPueMLGsHTvhFJUTz" version="14.1.8" type="github">
  <diagram id="C5RBs43oDa-KdzZeNtuy" name="Page-1">
    <mxGraphModel dx="1422" dy="762" grid="1" gridSize="10" guides="1" tooltips="1" connect="1" arrows="1" fold="1" page="1" pageScale="1" pageWidth="827" pageHeight="1169" math="0" shadow="0">
      <root>
        <mxCell id="WIyWlLk6GJQsqaUBKTNV-0" />
        <mxCell id="WIyWlLk6GJQsqaUBKTNV-1" parent="WIyWlLk6GJQsqaUBKTNV-0" />
        <mxCell id="I3oZUhm3jbkNPcZkGbYT-4" value="" style="edgeStyle=orthogonalEdgeStyle;rounded=0;orthogonalLoop=1;jettySize=auto;html=1;" edge="1" parent="WIyWlLk6GJQsqaUBKTNV-1" source="I3oZUhm3jbkNPcZkGbYT-2" target="I3oZUhm3jbkNPcZkGbYT-3">
          <mxGeometry relative="1" as="geometry" />
        </mxCell>
        <mxCell id="I3oZUhm3jbkNPcZkGbYT-2" value="填单" style="rounded=1;whiteSpace=wrap;html=1;fillColor=#CDA2BE;" vertex="1" parent="WIyWlLk6GJQsqaUBKTNV-1">
          <mxGeometry x="90" y="20" width="60" height="20" as="geometry" />
        </mxCell>
        <mxCell id="I3oZUhm3jbkNPcZkGbYT-6" value="" style="edgeStyle=orthogonalEdgeStyle;rounded=0;orthogonalLoop=1;jettySize=auto;html=1;" edge="1" parent="WIyWlLk6GJQsqaUBKTNV-1" source="I3oZUhm3jbkNPcZkGbYT-3" target="I3oZUhm3jbkNPcZkGbYT-5">
          <mxGeometry relative="1" as="geometry" />
        </mxCell>
        <mxCell id="I3oZUhm3jbkNPcZkGbYT-3" value="部门经理审批1" style="rounded=1;whiteSpace=wrap;html=1;fillColor=#FFB366;" vertex="1" parent="WIyWlLk6GJQsqaUBKTNV-1">
          <mxGeometry x="70" y="60" width="100" height="20" as="geometry" />
        </mxCell>
        <mxCell id="I3oZUhm3jbkNPcZkGbYT-8" value="" style="edgeStyle=orthogonalEdgeStyle;rounded=0;orthogonalLoop=1;jettySize=auto;html=1;" edge="1" parent="WIyWlLk6GJQsqaUBKTNV-1" source="I3oZUhm3jbkNPcZkGbYT-5">
          <mxGeometry relative="1" as="geometry">
            <mxPoint x="120" y="220" as="targetPoint" />
          </mxGeometry>
        </mxCell>
        <mxCell id="I3oZUhm3jbkNPcZkGbYT-5" value="采购1【报价】" style="rounded=1;whiteSpace=wrap;html=1;fillColor=#FFFF99;" vertex="1" parent="WIyWlLk6GJQsqaUBKTNV-1">
          <mxGeometry x="70" y="100" width="100" height="20" as="geometry" />
        </mxCell>
        <mxCell id="I3oZUhm3jbkNPcZkGbYT-15" value="" style="edgeStyle=orthogonalEdgeStyle;rounded=0;orthogonalLoop=1;jettySize=auto;html=1;" edge="1" parent="WIyWlLk6GJQsqaUBKTNV-1" source="I3oZUhm3jbkNPcZkGbYT-9">
          <mxGeometry relative="1" as="geometry">
            <mxPoint x="120" y="320" as="targetPoint" />
          </mxGeometry>
        </mxCell>
        <mxCell id="I3oZUhm3jbkNPcZkGbYT-9" value="报价&amp;gt;预估价?" style="rhombus;whiteSpace=wrap;html=1;" vertex="1" parent="WIyWlLk6GJQsqaUBKTNV-1">
          <mxGeometry x="65" y="140" width="110" height="60" as="geometry" />
        </mxCell>
        <mxCell id="I3oZUhm3jbkNPcZkGbYT-11" value="部门经理审批2" style="whiteSpace=wrap;html=1;fillColor=#FFB366;" vertex="1" parent="WIyWlLk6GJQsqaUBKTNV-1">
          <mxGeometry x="200" y="160" width="100" height="20" as="geometry" />
        </mxCell>
        <mxCell id="I3oZUhm3jbkNPcZkGbYT-12" value="" style="edgeStyle=orthogonalEdgeStyle;rounded=0;orthogonalLoop=1;jettySize=auto;html=1;" edge="1" parent="WIyWlLk6GJQsqaUBKTNV-1" source="I3oZUhm3jbkNPcZkGbYT-9" target="I3oZUhm3jbkNPcZkGbYT-11">
          <mxGeometry relative="1" as="geometry" />
        </mxCell>
        <mxCell id="I3oZUhm3jbkNPcZkGbYT-13" value="Y" style="text;html=1;strokeColor=none;fillColor=none;align=center;verticalAlign=middle;whiteSpace=wrap;rounded=0;" vertex="1" parent="WIyWlLk6GJQsqaUBKTNV-1">
          <mxGeometry x="160" y="250" width="40" height="20" as="geometry" />
        </mxCell>
        <mxCell id="I3oZUhm3jbkNPcZkGbYT-17" value="N" style="text;html=1;strokeColor=none;fillColor=none;align=center;verticalAlign=middle;whiteSpace=wrap;rounded=0;" vertex="1" parent="WIyWlLk6GJQsqaUBKTNV-1">
          <mxGeometry x="80" y="270" width="40" height="20" as="geometry" />
        </mxCell>
        <mxCell id="I3oZUhm3jbkNPcZkGbYT-25" value="" style="edgeStyle=orthogonalEdgeStyle;rounded=0;orthogonalLoop=1;jettySize=auto;html=1;" edge="1" parent="WIyWlLk6GJQsqaUBKTNV-1" source="I3oZUhm3jbkNPcZkGbYT-18" target="I3oZUhm3jbkNPcZkGbYT-24">
          <mxGeometry relative="1" as="geometry" />
        </mxCell>
        <mxCell id="I3oZUhm3jbkNPcZkGbYT-57" value="" style="edgeStyle=orthogonalEdgeStyle;rounded=0;orthogonalLoop=1;jettySize=auto;html=1;" edge="1" parent="WIyWlLk6GJQsqaUBKTNV-1" source="I3oZUhm3jbkNPcZkGbYT-18" target="I3oZUhm3jbkNPcZkGbYT-21">
          <mxGeometry relative="1" as="geometry" />
        </mxCell>
        <mxCell id="I3oZUhm3jbkNPcZkGbYT-18" value="总价&amp;gt;5k?" style="rhombus;whiteSpace=wrap;html=1;" vertex="1" parent="WIyWlLk6GJQsqaUBKTNV-1">
          <mxGeometry x="65" y="240" width="110" height="60" as="geometry" />
        </mxCell>
        <mxCell id="I3oZUhm3jbkNPcZkGbYT-54" value="" style="edgeStyle=orthogonalEdgeStyle;rounded=0;orthogonalLoop=1;jettySize=auto;html=1;" edge="1" parent="WIyWlLk6GJQsqaUBKTNV-1" source="I3oZUhm3jbkNPcZkGbYT-21" target="I3oZUhm3jbkNPcZkGbYT-27">
          <mxGeometry relative="1" as="geometry" />
        </mxCell>
        <mxCell id="I3oZUhm3jbkNPcZkGbYT-21" value="采购经理审批" style="whiteSpace=wrap;html=1;fillColor=#CCFFCC;" vertex="1" parent="WIyWlLk6GJQsqaUBKTNV-1">
          <mxGeometry x="200" y="260" width="100" height="20" as="geometry" />
        </mxCell>
        <mxCell id="I3oZUhm3jbkNPcZkGbYT-22" value="Y" style="text;html=1;strokeColor=none;fillColor=none;align=center;verticalAlign=middle;whiteSpace=wrap;rounded=0;" vertex="1" parent="WIyWlLk6GJQsqaUBKTNV-1">
          <mxGeometry x="190" y="327" width="40" height="20" as="geometry" />
        </mxCell>
        <mxCell id="I3oZUhm3jbkNPcZkGbYT-24" value="采购主管审批" style="whiteSpace=wrap;html=1;fillColor=#E6FFCC;" vertex="1" parent="WIyWlLk6GJQsqaUBKTNV-1">
          <mxGeometry x="60" y="320" width="120" height="20" as="geometry" />
        </mxCell>
        <mxCell id="I3oZUhm3jbkNPcZkGbYT-26" value="N" style="text;html=1;strokeColor=none;fillColor=none;align=center;verticalAlign=middle;whiteSpace=wrap;rounded=0;" vertex="1" parent="WIyWlLk6GJQsqaUBKTNV-1">
          <mxGeometry x="80" y="300" width="40" height="20" as="geometry" />
        </mxCell>
        <mxCell id="I3oZUhm3jbkNPcZkGbYT-35" value="" style="edgeStyle=orthogonalEdgeStyle;rounded=0;orthogonalLoop=1;jettySize=auto;html=1;" edge="1" parent="WIyWlLk6GJQsqaUBKTNV-1" source="I3oZUhm3jbkNPcZkGbYT-27" target="I3oZUhm3jbkNPcZkGbYT-34">
          <mxGeometry relative="1" as="geometry" />
        </mxCell>
        <mxCell id="I3oZUhm3jbkNPcZkGbYT-60" value="" style="edgeStyle=orthogonalEdgeStyle;rounded=0;orthogonalLoop=1;jettySize=auto;html=1;" edge="1" parent="WIyWlLk6GJQsqaUBKTNV-1" source="I3oZUhm3jbkNPcZkGbYT-27" target="I3oZUhm3jbkNPcZkGbYT-33">
          <mxGeometry relative="1" as="geometry" />
        </mxCell>
        <mxCell id="I3oZUhm3jbkNPcZkGbYT-27" value="总价&amp;gt;5w?" style="rhombus;whiteSpace=wrap;html=1;" vertex="1" parent="WIyWlLk6GJQsqaUBKTNV-1">
          <mxGeometry x="320" y="240" width="110" height="60" as="geometry" />
        </mxCell>
        <mxCell id="I3oZUhm3jbkNPcZkGbYT-32" value="Y" style="text;html=1;strokeColor=none;fillColor=none;align=center;verticalAlign=middle;whiteSpace=wrap;rounded=0;" vertex="1" parent="WIyWlLk6GJQsqaUBKTNV-1">
          <mxGeometry x="420" y="250" width="40" height="20" as="geometry" />
        </mxCell>
        <mxCell id="I3oZUhm3jbkNPcZkGbYT-61" value="" style="edgeStyle=orthogonalEdgeStyle;rounded=0;orthogonalLoop=1;jettySize=auto;html=1;" edge="1" parent="WIyWlLk6GJQsqaUBKTNV-1" source="I3oZUhm3jbkNPcZkGbYT-34" target="I3oZUhm3jbkNPcZkGbYT-43">
          <mxGeometry relative="1" as="geometry" />
        </mxCell>
        <mxCell id="I3oZUhm3jbkNPcZkGbYT-34" value="采购进行中" style="whiteSpace=wrap;html=1;fillColor=#FFFF99;" vertex="1" parent="WIyWlLk6GJQsqaUBKTNV-1">
          <mxGeometry x="332.5" y="320" width="85" height="20" as="geometry" />
        </mxCell>
        <mxCell id="I3oZUhm3jbkNPcZkGbYT-36" value="N" style="text;html=1;strokeColor=none;fillColor=none;align=center;verticalAlign=middle;whiteSpace=wrap;rounded=0;" vertex="1" parent="WIyWlLk6GJQsqaUBKTNV-1">
          <mxGeometry x="340" y="300" width="40" height="20" as="geometry" />
        </mxCell>
        <mxCell id="I3oZUhm3jbkNPcZkGbYT-50" value="" style="edgeStyle=orthogonalEdgeStyle;rounded=0;orthogonalLoop=1;jettySize=auto;html=1;" edge="1" parent="WIyWlLk6GJQsqaUBKTNV-1" source="I3oZUhm3jbkNPcZkGbYT-42" target="I3oZUhm3jbkNPcZkGbYT-49">
          <mxGeometry relative="1" as="geometry" />
        </mxCell>
        <mxCell id="I3oZUhm3jbkNPcZkGbYT-63" value="" style="edgeStyle=orthogonalEdgeStyle;rounded=0;orthogonalLoop=1;jettySize=auto;html=1;" edge="1" parent="WIyWlLk6GJQsqaUBKTNV-1" source="I3oZUhm3jbkNPcZkGbYT-42" target="I3oZUhm3jbkNPcZkGbYT-52">
          <mxGeometry relative="1" as="geometry" />
        </mxCell>
        <mxCell id="I3oZUhm3jbkNPcZkGbYT-42" value="是否需要验收？" style="rhombus;whiteSpace=wrap;html=1;" vertex="1" parent="WIyWlLk6GJQsqaUBKTNV-1">
          <mxGeometry x="320" y="400" width="110" height="60" as="geometry" />
        </mxCell>
        <mxCell id="I3oZUhm3jbkNPcZkGbYT-45" value="" style="edgeStyle=orthogonalEdgeStyle;rounded=0;orthogonalLoop=1;jettySize=auto;html=1;" edge="1" parent="WIyWlLk6GJQsqaUBKTNV-1" source="I3oZUhm3jbkNPcZkGbYT-43" target="I3oZUhm3jbkNPcZkGbYT-42">
          <mxGeometry relative="1" as="geometry" />
        </mxCell>
        <mxCell id="I3oZUhm3jbkNPcZkGbYT-43" value="已到货" style="whiteSpace=wrap;html=1;" vertex="1" parent="WIyWlLk6GJQsqaUBKTNV-1">
          <mxGeometry x="332.5" y="360" width="85" height="20" as="geometry" />
        </mxCell>
        <mxCell id="I3oZUhm3jbkNPcZkGbYT-48" value="Y" style="text;html=1;strokeColor=none;fillColor=none;align=center;verticalAlign=middle;whiteSpace=wrap;rounded=0;" vertex="1" parent="WIyWlLk6GJQsqaUBKTNV-1">
          <mxGeometry x="420" y="410" width="40" height="20" as="geometry" />
        </mxCell>
        <mxCell id="I3oZUhm3jbkNPcZkGbYT-49" value="结束" style="whiteSpace=wrap;html=1;" vertex="1" parent="WIyWlLk6GJQsqaUBKTNV-1">
          <mxGeometry x="332.5" y="480" width="85" height="28.33" as="geometry" />
        </mxCell>
        <mxCell id="I3oZUhm3jbkNPcZkGbYT-51" value="N" style="text;html=1;strokeColor=none;fillColor=none;align=center;verticalAlign=middle;whiteSpace=wrap;rounded=0;" vertex="1" parent="WIyWlLk6GJQsqaUBKTNV-1">
          <mxGeometry x="332.5" y="460" width="40" height="20" as="geometry" />
        </mxCell>
        <mxCell id="I3oZUhm3jbkNPcZkGbYT-64" style="edgeStyle=orthogonalEdgeStyle;rounded=0;orthogonalLoop=1;jettySize=auto;html=1;exitX=0.5;exitY=1;exitDx=0;exitDy=0;entryX=1;entryY=0.5;entryDx=0;entryDy=0;" edge="1" parent="WIyWlLk6GJQsqaUBKTNV-1" source="I3oZUhm3jbkNPcZkGbYT-52" target="I3oZUhm3jbkNPcZkGbYT-49">
          <mxGeometry relative="1" as="geometry" />
        </mxCell>
        <mxCell id="I3oZUhm3jbkNPcZkGbYT-52" value="验收" style="whiteSpace=wrap;html=1;" vertex="1" parent="WIyWlLk6GJQsqaUBKTNV-1">
          <mxGeometry x="460" y="415.84000000000003" width="85" height="28.33" as="geometry" />
        </mxCell>
        <mxCell id="I3oZUhm3jbkNPcZkGbYT-62" style="edgeStyle=orthogonalEdgeStyle;rounded=0;orthogonalLoop=1;jettySize=auto;html=1;exitX=0.5;exitY=1;exitDx=0;exitDy=0;entryX=1;entryY=0.5;entryDx=0;entryDy=0;" edge="1" parent="WIyWlLk6GJQsqaUBKTNV-1" source="I3oZUhm3jbkNPcZkGbYT-33" target="I3oZUhm3jbkNPcZkGbYT-34">
          <mxGeometry relative="1" as="geometry" />
        </mxCell>
        <mxCell id="I3oZUhm3jbkNPcZkGbYT-33" value="GM审批" style="whiteSpace=wrap;html=1;fillColor=#99FFCC;" vertex="1" parent="WIyWlLk6GJQsqaUBKTNV-1">
          <mxGeometry x="460" y="260" width="100" height="20" as="geometry" />
        </mxCell>
      </root>
    </mxGraphModel>
  </diagram>
</mxfile>
